<svg width="100.4" height="100.4" xmlns="http://www.w3.org/2000/svg">

 <g>
  <title>background</title>
  <rect fill="none" id="canvas_background" height="402" width="582" y="-1" x="-1"/>
 </g>
 <g>
  <title>Layer 1</title>
  <path fill="#0e8ce4" id="svg_2" d="m69.507857,7.499999l-38.615717,0c-4.955528,0 -9.069551,4.3 -9.069551,9.6l0,66.2c0,5.3 4.020523,9.6 9.069551,9.6l38.615717,0c4.955528,0 9.069551,-4.3 9.069551,-9.6l0,-66.2c0,-5.3 -4.020523,-9.6 -9.069551,-9.6zm6.264535,75.8c0,3.7 -2.805016,6.6 -6.264535,6.6l-38.615717,0c-3.459519,0 -6.264535,-3 -6.264535,-6.6l0,-66.2c0,-3.7 2.805016,-6.6 6.264535,-6.6l38.615717,0c3.459519,0 6.264535,3 6.264535,6.6l0,66.2z"/>
  <path fill="#0e8ce4" stroke="null" id="svg_3" d="m61.716813,18.722923l-23.033623,0c-0.746028,0 -1.398803,0.7 -1.398803,1.5s0.652775,1.5 1.398803,1.5l23.033623,0c0.746028,0 1.398803,-0.7 1.398803,-1.5s-0.652775,-1.5 -1.398803,-1.5z"/>
  <path fill="#0e8ce4" stroke="null" id="svg_4" d="m50.2,74.372176c-3.090698,0 -5.519103,2.538787 -5.519103,5.519103c0,1.434967 0.55191,2.869933 1.655731,3.863372c0.993439,0.993439 2.428405,1.545349 3.863372,1.545349c0,0 0,0 0,0c3.090698,0 5.519103,-2.538787 5.519103,-5.519103c0,-2.980316 -2.428405,-5.408721 -5.519103,-5.408721zm0.110382,7.726744c0,0 0,0 0,0c-0.55191,0 -1.103821,-0.220764 -1.545349,-0.662292c-0.441528,-0.441528 -0.662292,-0.993439 -0.662292,-1.545349c0,-1.214203 0.993439,-2.207641 2.207641,-2.207641c0,0 0,0 0,0c1.214203,0 2.207641,0.993439 2.207641,2.207641c0,1.214203 -0.993439,2.207641 -2.207641,2.207641z"/>
 </g>
</svg>